<mxfile host="Electron" agent="Mozilla/5.0 (Windows NT 10.0; Win64; x64) AppleWebKit/537.36 (KHTML, like Gecko) draw.io/25.0.2 Chrome/128.0.6613.186 Electron/32.2.5 Safari/537.36" version="25.0.2">
  <diagram name="Страница — 1" id="avOrtcsHQqS9am1pPhLw">
    <mxGraphModel dx="1219" dy="724" grid="0" gridSize="10" guides="1" tooltips="1" connect="1" arrows="1" fold="1" page="1" pageScale="1" pageWidth="2339" pageHeight="3300" math="0" shadow="0">
      <root>
        <mxCell id="0" />
        <mxCell id="1" parent="0" />
        <mxCell id="bvT4swcXVPuvCOTgvnRD-3" value="" style="edgeStyle=orthogonalEdgeStyle;rounded=0;orthogonalLoop=1;jettySize=auto;html=1;" edge="1" parent="1" source="bvT4swcXVPuvCOTgvnRD-1" target="bvT4swcXVPuvCOTgvnRD-2">
          <mxGeometry relative="1" as="geometry" />
        </mxCell>
        <mxCell id="bvT4swcXVPuvCOTgvnRD-1" value="Начало" style="ellipse;whiteSpace=wrap;html=1;fontSize=17;" vertex="1" parent="1">
          <mxGeometry x="160" y="23" width="120" height="80" as="geometry" />
        </mxCell>
        <mxCell id="bvT4swcXVPuvCOTgvnRD-7" value="" style="edgeStyle=orthogonalEdgeStyle;rounded=0;orthogonalLoop=1;jettySize=auto;html=1;" edge="1" parent="1" source="bvT4swcXVPuvCOTgvnRD-2" target="bvT4swcXVPuvCOTgvnRD-6">
          <mxGeometry relative="1" as="geometry" />
        </mxCell>
        <mxCell id="bvT4swcXVPuvCOTgvnRD-2" value="double f(double x)" style="shape=process;whiteSpace=wrap;html=1;backgroundOutline=1;fontSize=17;" vertex="1" parent="1">
          <mxGeometry x="130" y="143" width="180" height="60" as="geometry" />
        </mxCell>
        <mxCell id="bvT4swcXVPuvCOTgvnRD-5" style="edgeStyle=orthogonalEdgeStyle;rounded=0;orthogonalLoop=1;jettySize=auto;html=1;exitX=0;exitY=0.5;exitDx=0;exitDy=0;exitPerimeter=0;endArrow=none;endFill=0;strokeWidth=2;dashed=1;" edge="1" parent="1" source="bvT4swcXVPuvCOTgvnRD-4">
          <mxGeometry relative="1" as="geometry">
            <mxPoint x="220" y="123" as="targetPoint" />
          </mxGeometry>
        </mxCell>
        <mxCell id="bvT4swcXVPuvCOTgvnRD-4" value="#include &amp;lt;iostream&amp;gt;&lt;div&gt;#include &amp;lt;clocale&amp;gt;&lt;/div&gt;&lt;div&gt;#include &amp;lt;ctime&amp;gt;&lt;/div&gt;&lt;div&gt;#include &amp;lt;cmath&amp;gt;&lt;/div&gt;&lt;div&gt;using namespace std;&lt;/div&gt;" style="strokeWidth=2;html=1;shape=mxgraph.flowchart.annotation_2;align=left;labelPosition=right;pointerEvents=1;fontSize=15;" vertex="1" parent="1">
          <mxGeometry x="390" y="73" width="50" height="100" as="geometry" />
        </mxCell>
        <mxCell id="bvT4swcXVPuvCOTgvnRD-6" value="return x - 2 + sin(1 / x);" style="ellipse;whiteSpace=wrap;html=1;fontSize=17;" vertex="1" parent="1">
          <mxGeometry x="125" y="243" width="190" height="120" as="geometry" />
        </mxCell>
        <mxCell id="bvT4swcXVPuvCOTgvnRD-8" value="{" style="text;html=1;align=center;verticalAlign=middle;whiteSpace=wrap;rounded=0;fontSize=17;" vertex="1" parent="1">
          <mxGeometry x="150" y="213" width="60" height="30" as="geometry" />
        </mxCell>
        <mxCell id="bvT4swcXVPuvCOTgvnRD-9" value="}" style="text;html=1;align=center;verticalAlign=middle;whiteSpace=wrap;rounded=0;fontSize=17;" vertex="1" parent="1">
          <mxGeometry x="300" y="343" width="60" height="30" as="geometry" />
        </mxCell>
        <mxCell id="bvT4swcXVPuvCOTgvnRD-13" value="" style="edgeStyle=orthogonalEdgeStyle;rounded=0;orthogonalLoop=1;jettySize=auto;html=1;" edge="1" parent="1" source="bvT4swcXVPuvCOTgvnRD-11" target="bvT4swcXVPuvCOTgvnRD-12">
          <mxGeometry relative="1" as="geometry" />
        </mxCell>
        <mxCell id="bvT4swcXVPuvCOTgvnRD-11" value="void n(double a, double b)" style="shape=process;whiteSpace=wrap;html=1;backgroundOutline=1;fontSize=17;" vertex="1" parent="1">
          <mxGeometry x="700" y="200" width="180" height="70" as="geometry" />
        </mxCell>
        <mxCell id="bvT4swcXVPuvCOTgvnRD-15" value="" style="edgeStyle=orthogonalEdgeStyle;rounded=0;orthogonalLoop=1;jettySize=auto;html=1;" edge="1" parent="1" source="bvT4swcXVPuvCOTgvnRD-12" target="bvT4swcXVPuvCOTgvnRD-14">
          <mxGeometry relative="1" as="geometry" />
        </mxCell>
        <mxCell id="bvT4swcXVPuvCOTgvnRD-12" value="cout &lt;&lt; &quot;Введите точность: &quot;;" style="shape=parallelogram;perimeter=parallelogramPerimeter;whiteSpace=wrap;html=1;fixedSize=1;fontSize=17;" vertex="1" parent="1">
          <mxGeometry x="660" y="310" width="260" height="60" as="geometry" />
        </mxCell>
        <mxCell id="bvT4swcXVPuvCOTgvnRD-17" value="" style="edgeStyle=orthogonalEdgeStyle;rounded=0;orthogonalLoop=1;jettySize=auto;html=1;" edge="1" parent="1" source="bvT4swcXVPuvCOTgvnRD-14" target="bvT4swcXVPuvCOTgvnRD-16">
          <mxGeometry relative="1" as="geometry" />
        </mxCell>
        <mxCell id="bvT4swcXVPuvCOTgvnRD-14" value="double e;" style="whiteSpace=wrap;html=1;fontSize=17;" vertex="1" parent="1">
          <mxGeometry x="730" y="410" width="120" height="60" as="geometry" />
        </mxCell>
        <mxCell id="bvT4swcXVPuvCOTgvnRD-19" value="" style="edgeStyle=orthogonalEdgeStyle;rounded=0;orthogonalLoop=1;jettySize=auto;html=1;" edge="1" parent="1" source="bvT4swcXVPuvCOTgvnRD-16" target="bvT4swcXVPuvCOTgvnRD-18">
          <mxGeometry relative="1" as="geometry" />
        </mxCell>
        <mxCell id="bvT4swcXVPuvCOTgvnRD-16" value="cin &amp;gt;&amp;gt; e;" style="shape=parallelogram;perimeter=parallelogramPerimeter;whiteSpace=wrap;html=1;fixedSize=1;fontSize=17;" vertex="1" parent="1">
          <mxGeometry x="685" y="510" width="210" height="60" as="geometry" />
        </mxCell>
        <mxCell id="bvT4swcXVPuvCOTgvnRD-21" value="" style="edgeStyle=orthogonalEdgeStyle;rounded=0;orthogonalLoop=1;jettySize=auto;html=1;" edge="1" parent="1" source="bvT4swcXVPuvCOTgvnRD-18" target="bvT4swcXVPuvCOTgvnRD-20">
          <mxGeometry relative="1" as="geometry" />
        </mxCell>
        <mxCell id="bvT4swcXVPuvCOTgvnRD-18" value="int k = 0;" style="whiteSpace=wrap;html=1;fontSize=17;" vertex="1" parent="1">
          <mxGeometry x="730" y="610" width="120" height="60" as="geometry" />
        </mxCell>
        <mxCell id="bvT4swcXVPuvCOTgvnRD-23" value="" style="edgeStyle=orthogonalEdgeStyle;rounded=0;orthogonalLoop=1;jettySize=auto;html=1;" edge="1" parent="1" source="bvT4swcXVPuvCOTgvnRD-20" target="bvT4swcXVPuvCOTgvnRD-22">
          <mxGeometry relative="1" as="geometry" />
        </mxCell>
        <mxCell id="bvT4swcXVPuvCOTgvnRD-20" value="int start = clock();" style="whiteSpace=wrap;html=1;fontSize=17;" vertex="1" parent="1">
          <mxGeometry x="730" y="710" width="120" height="60" as="geometry" />
        </mxCell>
        <mxCell id="bvT4swcXVPuvCOTgvnRD-25" value="1" style="edgeStyle=orthogonalEdgeStyle;rounded=0;orthogonalLoop=1;jettySize=auto;html=1;fontSize=16;" edge="1" parent="1" source="bvT4swcXVPuvCOTgvnRD-22" target="bvT4swcXVPuvCOTgvnRD-24">
          <mxGeometry x="-0.3953" y="-10" relative="1" as="geometry">
            <Array as="points">
              <mxPoint x="610" y="880" />
            </Array>
            <mxPoint as="offset" />
          </mxGeometry>
        </mxCell>
        <mxCell id="bvT4swcXVPuvCOTgvnRD-33" value="0" style="edgeStyle=orthogonalEdgeStyle;rounded=0;orthogonalLoop=1;jettySize=auto;html=1;fontSize=16;" edge="1" parent="1" source="bvT4swcXVPuvCOTgvnRD-22" target="bvT4swcXVPuvCOTgvnRD-32">
          <mxGeometry x="-0.0645" y="10" relative="1" as="geometry">
            <mxPoint x="-1" as="offset" />
          </mxGeometry>
        </mxCell>
        <mxCell id="bvT4swcXVPuvCOTgvnRD-22" value="if (f(a) == 0)" style="rhombus;whiteSpace=wrap;html=1;fontSize=17;" vertex="1" parent="1">
          <mxGeometry x="715" y="810" width="150" height="140" as="geometry" />
        </mxCell>
        <mxCell id="bvT4swcXVPuvCOTgvnRD-27" value="" style="edgeStyle=orthogonalEdgeStyle;rounded=0;orthogonalLoop=1;jettySize=auto;html=1;" edge="1" parent="1" source="bvT4swcXVPuvCOTgvnRD-24" target="bvT4swcXVPuvCOTgvnRD-26">
          <mxGeometry relative="1" as="geometry" />
        </mxCell>
        <mxCell id="bvT4swcXVPuvCOTgvnRD-24" value="cout &lt;&lt; &quot;Корень совпадает с границей заданного интервала: &quot; &lt;&lt; a &lt;&lt; &#39;\n&#39;;" style="shape=parallelogram;perimeter=parallelogramPerimeter;whiteSpace=wrap;html=1;fixedSize=1;fontSize=17;" vertex="1" parent="1">
          <mxGeometry x="480" y="990" width="260" height="60" as="geometry" />
        </mxCell>
        <mxCell id="bvT4swcXVPuvCOTgvnRD-29" value="" style="edgeStyle=orthogonalEdgeStyle;rounded=0;orthogonalLoop=1;jettySize=auto;html=1;" edge="1" parent="1" source="bvT4swcXVPuvCOTgvnRD-26" target="bvT4swcXVPuvCOTgvnRD-28">
          <mxGeometry relative="1" as="geometry" />
        </mxCell>
        <mxCell id="bvT4swcXVPuvCOTgvnRD-26" value="int end = clock();" style="whiteSpace=wrap;html=1;fontSize=17;" vertex="1" parent="1">
          <mxGeometry x="550" y="1090" width="120" height="60" as="geometry" />
        </mxCell>
        <mxCell id="bvT4swcXVPuvCOTgvnRD-76" style="edgeStyle=orthogonalEdgeStyle;rounded=0;orthogonalLoop=1;jettySize=auto;html=1;exitX=0.5;exitY=1;exitDx=0;exitDy=0;" edge="1" parent="1" source="bvT4swcXVPuvCOTgvnRD-28">
          <mxGeometry relative="1" as="geometry">
            <mxPoint x="920" y="2200" as="targetPoint" />
            <Array as="points">
              <mxPoint x="610" y="2200" />
            </Array>
          </mxGeometry>
        </mxCell>
        <mxCell id="bvT4swcXVPuvCOTgvnRD-28" value="cout &lt;&lt; &quot;Время выполнения программы (в миллисекундах): &quot; &lt;&lt; end - start &lt;&lt; &#39;\n&#39;;" style="shape=parallelogram;perimeter=parallelogramPerimeter;whiteSpace=wrap;html=1;fixedSize=1;fontSize=17;" vertex="1" parent="1">
          <mxGeometry x="470" y="1190" width="280" height="60" as="geometry" />
        </mxCell>
        <mxCell id="bvT4swcXVPuvCOTgvnRD-30" value="{" style="text;html=1;align=center;verticalAlign=middle;whiteSpace=wrap;rounded=0;fontSize=17;" vertex="1" parent="1">
          <mxGeometry x="730" y="280" width="60" height="30" as="geometry" />
        </mxCell>
        <mxCell id="bvT4swcXVPuvCOTgvnRD-31" value="{" style="text;html=1;align=center;verticalAlign=middle;whiteSpace=wrap;rounded=0;fontSize=17;" vertex="1" parent="1">
          <mxGeometry x="540" y="940" width="60" height="30" as="geometry" />
        </mxCell>
        <mxCell id="bvT4swcXVPuvCOTgvnRD-35" value="1" style="edgeStyle=orthogonalEdgeStyle;rounded=0;orthogonalLoop=1;jettySize=auto;html=1;fontSize=16;" edge="1" parent="1" source="bvT4swcXVPuvCOTgvnRD-32" target="bvT4swcXVPuvCOTgvnRD-34">
          <mxGeometry x="-0.1429" y="-10" relative="1" as="geometry">
            <Array as="points">
              <mxPoint x="1050" y="1030" />
            </Array>
            <mxPoint as="offset" />
          </mxGeometry>
        </mxCell>
        <mxCell id="bvT4swcXVPuvCOTgvnRD-43" value="0" style="edgeStyle=orthogonalEdgeStyle;rounded=0;orthogonalLoop=1;jettySize=auto;html=1;fontSize=16;" edge="1" parent="1" source="bvT4swcXVPuvCOTgvnRD-32" target="bvT4swcXVPuvCOTgvnRD-42">
          <mxGeometry x="-0.0175" y="20" relative="1" as="geometry">
            <Array as="points">
              <mxPoint x="1605" y="1030" />
            </Array>
            <mxPoint as="offset" />
          </mxGeometry>
        </mxCell>
        <mxCell id="bvT4swcXVPuvCOTgvnRD-32" value="if (f(b) == 0)" style="rhombus;whiteSpace=wrap;html=1;fontSize=17;" vertex="1" parent="1">
          <mxGeometry x="1200" y="960" width="150" height="140" as="geometry" />
        </mxCell>
        <mxCell id="bvT4swcXVPuvCOTgvnRD-38" value="" style="edgeStyle=orthogonalEdgeStyle;rounded=0;orthogonalLoop=1;jettySize=auto;html=1;" edge="1" parent="1" source="bvT4swcXVPuvCOTgvnRD-34" target="bvT4swcXVPuvCOTgvnRD-37">
          <mxGeometry relative="1" as="geometry" />
        </mxCell>
        <mxCell id="bvT4swcXVPuvCOTgvnRD-34" value="cout &lt;&lt; &quot;Корень совпадает с границей заданного интервала: &quot; &lt;&lt; b &lt;&lt; &#39;\n&#39;;" style="shape=parallelogram;perimeter=parallelogramPerimeter;whiteSpace=wrap;html=1;fixedSize=1;fontSize=17;" vertex="1" parent="1">
          <mxGeometry x="880" y="1090" width="330" height="60" as="geometry" />
        </mxCell>
        <mxCell id="bvT4swcXVPuvCOTgvnRD-40" value="" style="edgeStyle=orthogonalEdgeStyle;rounded=0;orthogonalLoop=1;jettySize=auto;html=1;" edge="1" parent="1" source="bvT4swcXVPuvCOTgvnRD-37" target="bvT4swcXVPuvCOTgvnRD-39">
          <mxGeometry relative="1" as="geometry" />
        </mxCell>
        <mxCell id="bvT4swcXVPuvCOTgvnRD-37" value="int end = clock();" style="whiteSpace=wrap;html=1;fontSize=17;" vertex="1" parent="1">
          <mxGeometry x="967.5" y="1190" width="155" height="60" as="geometry" />
        </mxCell>
        <mxCell id="bvT4swcXVPuvCOTgvnRD-72" style="edgeStyle=orthogonalEdgeStyle;rounded=0;orthogonalLoop=1;jettySize=auto;html=1;exitX=0.5;exitY=1;exitDx=0;exitDy=0;" edge="1" parent="1" source="bvT4swcXVPuvCOTgvnRD-39">
          <mxGeometry relative="1" as="geometry">
            <mxPoint x="1410" y="2120" as="targetPoint" />
            <Array as="points">
              <mxPoint x="1045" y="2120" />
              <mxPoint x="1410" y="2120" />
            </Array>
          </mxGeometry>
        </mxCell>
        <mxCell id="bvT4swcXVPuvCOTgvnRD-39" value="cout &lt;&lt; &quot;Время выполнения программы (в миллисекундах): &quot; &lt;&lt; end - start &lt;&lt; &#39;\n&#39;;" style="shape=parallelogram;perimeter=parallelogramPerimeter;whiteSpace=wrap;html=1;fixedSize=1;fontSize=17;" vertex="1" parent="1">
          <mxGeometry x="861.25" y="1290" width="367.5" height="60" as="geometry" />
        </mxCell>
        <mxCell id="bvT4swcXVPuvCOTgvnRD-41" value="{" style="text;html=1;align=center;verticalAlign=middle;whiteSpace=wrap;rounded=0;fontSize=17;" vertex="1" parent="1">
          <mxGeometry x="990" y="1050" width="60" height="30" as="geometry" />
        </mxCell>
        <mxCell id="bvT4swcXVPuvCOTgvnRD-47" value="1" style="edgeStyle=orthogonalEdgeStyle;rounded=0;orthogonalLoop=1;jettySize=auto;html=1;fontSize=15;" edge="1" parent="1" source="bvT4swcXVPuvCOTgvnRD-42" target="bvT4swcXVPuvCOTgvnRD-46">
          <mxGeometry y="15" relative="1" as="geometry">
            <mxPoint as="offset" />
          </mxGeometry>
        </mxCell>
        <mxCell id="bvT4swcXVPuvCOTgvnRD-64" value="0" style="edgeStyle=orthogonalEdgeStyle;rounded=0;orthogonalLoop=1;jettySize=auto;html=1;fontSize=16;" edge="1" parent="1" source="bvT4swcXVPuvCOTgvnRD-42" target="bvT4swcXVPuvCOTgvnRD-63">
          <mxGeometry x="-0.12" y="20" relative="1" as="geometry">
            <mxPoint as="offset" />
          </mxGeometry>
        </mxCell>
        <mxCell id="bvT4swcXVPuvCOTgvnRD-42" value="while (abs(a - b) &gt; e)" style="rhombus;whiteSpace=wrap;html=1;fontSize=17;" vertex="1" parent="1">
          <mxGeometry x="1530" y="1120" width="150" height="140" as="geometry" />
        </mxCell>
        <mxCell id="bvT4swcXVPuvCOTgvnRD-49" value="" style="edgeStyle=orthogonalEdgeStyle;rounded=0;orthogonalLoop=1;jettySize=auto;html=1;" edge="1" parent="1" source="bvT4swcXVPuvCOTgvnRD-46" target="bvT4swcXVPuvCOTgvnRD-48">
          <mxGeometry relative="1" as="geometry" />
        </mxCell>
        <mxCell id="bvT4swcXVPuvCOTgvnRD-46" value="double c = (a + b) / 2;" style="whiteSpace=wrap;html=1;fontSize=17;" vertex="1" parent="1">
          <mxGeometry x="1545" y="1300" width="120" height="60" as="geometry" />
        </mxCell>
        <mxCell id="bvT4swcXVPuvCOTgvnRD-51" value="" style="edgeStyle=orthogonalEdgeStyle;rounded=0;orthogonalLoop=1;jettySize=auto;html=1;" edge="1" parent="1" source="bvT4swcXVPuvCOTgvnRD-48" target="bvT4swcXVPuvCOTgvnRD-50">
          <mxGeometry relative="1" as="geometry" />
        </mxCell>
        <mxCell id="bvT4swcXVPuvCOTgvnRD-48" value="++k;" style="whiteSpace=wrap;html=1;fontSize=17;" vertex="1" parent="1">
          <mxGeometry x="1545" y="1400" width="120" height="60" as="geometry" />
        </mxCell>
        <mxCell id="bvT4swcXVPuvCOTgvnRD-53" value="" style="edgeStyle=orthogonalEdgeStyle;rounded=0;orthogonalLoop=1;jettySize=auto;html=1;" edge="1" parent="1" source="bvT4swcXVPuvCOTgvnRD-50" target="bvT4swcXVPuvCOTgvnRD-52">
          <mxGeometry relative="1" as="geometry" />
        </mxCell>
        <mxCell id="bvT4swcXVPuvCOTgvnRD-50" value="cout &lt;&lt; &quot;Приближенный корень при &quot; &lt;&lt; k &lt;&lt; &quot; итерации x0 = &quot; &lt;&lt; c &lt;&lt; &#39;\n&#39;;" style="shape=parallelogram;perimeter=parallelogramPerimeter;whiteSpace=wrap;html=1;fixedSize=1;fontSize=17;" vertex="1" parent="1">
          <mxGeometry x="1372.5" y="1500" width="465" height="60" as="geometry" />
        </mxCell>
        <mxCell id="bvT4swcXVPuvCOTgvnRD-55" value="1" style="edgeStyle=orthogonalEdgeStyle;rounded=0;orthogonalLoop=1;jettySize=auto;html=1;fontSize=15;" edge="1" parent="1" source="bvT4swcXVPuvCOTgvnRD-52" target="bvT4swcXVPuvCOTgvnRD-54">
          <mxGeometry x="-0.2752" y="-20" relative="1" as="geometry">
            <Array as="points">
              <mxPoint x="1410" y="1650" />
            </Array>
            <mxPoint as="offset" />
          </mxGeometry>
        </mxCell>
        <mxCell id="bvT4swcXVPuvCOTgvnRD-57" value="0" style="edgeStyle=orthogonalEdgeStyle;rounded=0;orthogonalLoop=1;jettySize=auto;html=1;fontSize=16;" edge="1" parent="1" source="bvT4swcXVPuvCOTgvnRD-52" target="bvT4swcXVPuvCOTgvnRD-56">
          <mxGeometry x="-0.1506" y="10" relative="1" as="geometry">
            <mxPoint as="offset" />
          </mxGeometry>
        </mxCell>
        <mxCell id="bvT4swcXVPuvCOTgvnRD-52" value="if (f(a) * f(c) &lt; 0)" style="rhombus;whiteSpace=wrap;html=1;fontSize=17;" vertex="1" parent="1">
          <mxGeometry x="1533.75" y="1600" width="142.5" height="100" as="geometry" />
        </mxCell>
        <mxCell id="bvT4swcXVPuvCOTgvnRD-58" style="edgeStyle=orthogonalEdgeStyle;rounded=0;orthogonalLoop=1;jettySize=auto;html=1;exitX=0.5;exitY=1;exitDx=0;exitDy=0;" edge="1" parent="1" source="bvT4swcXVPuvCOTgvnRD-54">
          <mxGeometry relative="1" as="geometry">
            <mxPoint x="1599.9999999999995" y="1900" as="targetPoint" />
            <Array as="points">
              <mxPoint x="1410" y="1900" />
            </Array>
          </mxGeometry>
        </mxCell>
        <mxCell id="bvT4swcXVPuvCOTgvnRD-54" value="b = c;" style="whiteSpace=wrap;html=1;fontSize=17;" vertex="1" parent="1">
          <mxGeometry x="1350" y="1730" width="120" height="60" as="geometry" />
        </mxCell>
        <mxCell id="bvT4swcXVPuvCOTgvnRD-59" style="edgeStyle=orthogonalEdgeStyle;rounded=0;orthogonalLoop=1;jettySize=auto;html=1;exitX=0.5;exitY=1;exitDx=0;exitDy=0;" edge="1" parent="1" source="bvT4swcXVPuvCOTgvnRD-56">
          <mxGeometry relative="1" as="geometry">
            <mxPoint x="1599.9999999999995" y="1900" as="targetPoint" />
            <Array as="points">
              <mxPoint x="1770" y="1900" />
            </Array>
          </mxGeometry>
        </mxCell>
        <mxCell id="bvT4swcXVPuvCOTgvnRD-56" value="a = c;" style="whiteSpace=wrap;html=1;fontSize=17;" vertex="1" parent="1">
          <mxGeometry x="1710" y="1730" width="120" height="60" as="geometry" />
        </mxCell>
        <mxCell id="bvT4swcXVPuvCOTgvnRD-60" value="" style="endArrow=classic;html=1;rounded=0;" edge="1" parent="1">
          <mxGeometry width="50" height="50" relative="1" as="geometry">
            <mxPoint x="1600" y="1900" as="sourcePoint" />
            <mxPoint x="1600" y="1100" as="targetPoint" />
            <Array as="points">
              <mxPoint x="1600" y="1970" />
              <mxPoint x="1300" y="1970" />
              <mxPoint x="1300" y="1100" />
            </Array>
          </mxGeometry>
        </mxCell>
        <mxCell id="bvT4swcXVPuvCOTgvnRD-61" value="{" style="text;html=1;align=center;verticalAlign=middle;whiteSpace=wrap;rounded=0;fontSize=17;" vertex="1" parent="1">
          <mxGeometry x="1540" y="1260" width="60" height="30" as="geometry" />
        </mxCell>
        <mxCell id="bvT4swcXVPuvCOTgvnRD-62" value="}" style="text;html=1;align=center;verticalAlign=middle;whiteSpace=wrap;rounded=0;fontSize=17;" vertex="1" parent="1">
          <mxGeometry x="1600" y="1940" width="60" height="30" as="geometry" />
        </mxCell>
        <mxCell id="bvT4swcXVPuvCOTgvnRD-68" value="" style="edgeStyle=orthogonalEdgeStyle;rounded=0;orthogonalLoop=1;jettySize=auto;html=1;" edge="1" parent="1" source="bvT4swcXVPuvCOTgvnRD-63" target="bvT4swcXVPuvCOTgvnRD-67">
          <mxGeometry relative="1" as="geometry" />
        </mxCell>
        <mxCell id="bvT4swcXVPuvCOTgvnRD-63" value="cout &lt;&lt; &quot;Количество итераций: &quot; &lt;&lt; k &lt;&lt; &#39;\n&#39;;" style="shape=parallelogram;perimeter=parallelogramPerimeter;whiteSpace=wrap;html=1;fixedSize=1;fontSize=17;" vertex="1" parent="1">
          <mxGeometry x="1930" y="1290" width="210" height="60" as="geometry" />
        </mxCell>
        <mxCell id="bvT4swcXVPuvCOTgvnRD-70" value="" style="edgeStyle=orthogonalEdgeStyle;rounded=0;orthogonalLoop=1;jettySize=auto;html=1;" edge="1" parent="1" source="bvT4swcXVPuvCOTgvnRD-67" target="bvT4swcXVPuvCOTgvnRD-69">
          <mxGeometry relative="1" as="geometry" />
        </mxCell>
        <mxCell id="bvT4swcXVPuvCOTgvnRD-67" value="int end = clock();" style="whiteSpace=wrap;html=1;fontSize=17;" vertex="1" parent="1">
          <mxGeometry x="1975" y="1400" width="120" height="60" as="geometry" />
        </mxCell>
        <mxCell id="bvT4swcXVPuvCOTgvnRD-71" style="edgeStyle=orthogonalEdgeStyle;rounded=0;orthogonalLoop=1;jettySize=auto;html=1;exitX=0.5;exitY=1;exitDx=0;exitDy=0;" edge="1" parent="1" source="bvT4swcXVPuvCOTgvnRD-69">
          <mxGeometry relative="1" as="geometry">
            <mxPoint x="1410" y="2120" as="targetPoint" />
            <Array as="points">
              <mxPoint x="2035" y="2120" />
            </Array>
          </mxGeometry>
        </mxCell>
        <mxCell id="bvT4swcXVPuvCOTgvnRD-69" value="cout &lt;&lt; &quot;Время выполнения программы (в миллисекундах): &quot; &lt;&lt; end - start;" style="shape=parallelogram;perimeter=parallelogramPerimeter;whiteSpace=wrap;html=1;fixedSize=1;fontSize=17;" vertex="1" parent="1">
          <mxGeometry x="1871.25" y="1500" width="327.5" height="60" as="geometry" />
        </mxCell>
        <mxCell id="bvT4swcXVPuvCOTgvnRD-74" value="}" style="text;html=1;align=center;verticalAlign=middle;whiteSpace=wrap;rounded=0;fontSize=17;" vertex="1" parent="1">
          <mxGeometry x="1070" y="1370" width="60" height="30" as="geometry" />
        </mxCell>
        <mxCell id="bvT4swcXVPuvCOTgvnRD-75" value="" style="endArrow=classic;html=1;rounded=0;" edge="1" parent="1">
          <mxGeometry width="50" height="50" relative="1" as="geometry">
            <mxPoint x="1410" y="2120" as="sourcePoint" />
            <mxPoint x="920" y="2200" as="targetPoint" />
            <Array as="points">
              <mxPoint x="1410" y="2200" />
            </Array>
          </mxGeometry>
        </mxCell>
        <mxCell id="bvT4swcXVPuvCOTgvnRD-77" value="" style="endArrow=classic;html=1;rounded=0;entryX=0.5;entryY=0;entryDx=0;entryDy=0;" edge="1" parent="1" target="bvT4swcXVPuvCOTgvnRD-78">
          <mxGeometry width="50" height="50" relative="1" as="geometry">
            <mxPoint x="920" y="2200" as="sourcePoint" />
            <mxPoint x="920" y="2270" as="targetPoint" />
          </mxGeometry>
        </mxCell>
        <mxCell id="bvT4swcXVPuvCOTgvnRD-78" value="Конец" style="ellipse;whiteSpace=wrap;html=1;fontSize=17;" vertex="1" parent="1">
          <mxGeometry x="861.25" y="2260" width="120" height="80" as="geometry" />
        </mxCell>
        <mxCell id="bvT4swcXVPuvCOTgvnRD-81" value="" style="edgeStyle=orthogonalEdgeStyle;rounded=0;orthogonalLoop=1;jettySize=auto;html=1;" edge="1" parent="1" source="bvT4swcXVPuvCOTgvnRD-79" target="bvT4swcXVPuvCOTgvnRD-80">
          <mxGeometry relative="1" as="geometry" />
        </mxCell>
        <mxCell id="bvT4swcXVPuvCOTgvnRD-79" value="int main()" style="shape=process;whiteSpace=wrap;html=1;backgroundOutline=1;fontSize=17;" vertex="1" parent="1">
          <mxGeometry x="125" y="480" width="175" height="70" as="geometry" />
        </mxCell>
        <mxCell id="bvT4swcXVPuvCOTgvnRD-83" value="" style="edgeStyle=orthogonalEdgeStyle;rounded=0;orthogonalLoop=1;jettySize=auto;html=1;" edge="1" parent="1" source="bvT4swcXVPuvCOTgvnRD-80" target="bvT4swcXVPuvCOTgvnRD-82">
          <mxGeometry relative="1" as="geometry" />
        </mxCell>
        <mxCell id="bvT4swcXVPuvCOTgvnRD-80" value="setlocale(LC_ALL, &quot;ru&quot;);" style="whiteSpace=wrap;html=1;fontSize=17;" vertex="1" parent="1">
          <mxGeometry x="128.75" y="590" width="167.5" height="60" as="geometry" />
        </mxCell>
        <mxCell id="bvT4swcXVPuvCOTgvnRD-85" value="" style="edgeStyle=orthogonalEdgeStyle;rounded=0;orthogonalLoop=1;jettySize=auto;html=1;" edge="1" parent="1" source="bvT4swcXVPuvCOTgvnRD-82" target="bvT4swcXVPuvCOTgvnRD-84">
          <mxGeometry relative="1" as="geometry" />
        </mxCell>
        <mxCell id="bvT4swcXVPuvCOTgvnRD-82" value="n(1, 2);" style="whiteSpace=wrap;html=1;fontSize=17;" vertex="1" parent="1">
          <mxGeometry x="133.75" y="680" width="157.5" height="60" as="geometry" />
        </mxCell>
        <mxCell id="bvT4swcXVPuvCOTgvnRD-84" value="return 0;" style="ellipse;whiteSpace=wrap;html=1;fontSize=17;" vertex="1" parent="1">
          <mxGeometry x="143.75" y="770" width="137.5" height="80" as="geometry" />
        </mxCell>
        <mxCell id="bvT4swcXVPuvCOTgvnRD-86" value="{" style="text;html=1;align=center;verticalAlign=middle;whiteSpace=wrap;rounded=0;fontSize=17;" vertex="1" parent="1">
          <mxGeometry x="155" y="560" width="60" height="30" as="geometry" />
        </mxCell>
        <mxCell id="bvT4swcXVPuvCOTgvnRD-87" value="}" style="text;html=1;align=center;verticalAlign=middle;whiteSpace=wrap;rounded=0;fontSize=17;" vertex="1" parent="1">
          <mxGeometry x="260" y="840" width="60" height="30" as="geometry" />
        </mxCell>
        <mxCell id="bvT4swcXVPuvCOTgvnRD-88" value="}" style="text;html=1;align=center;verticalAlign=middle;whiteSpace=wrap;rounded=0;fontSize=17;" vertex="1" parent="1">
          <mxGeometry x="981.25" y="2330" width="60" height="30" as="geometry" />
        </mxCell>
        <mxCell id="bvT4swcXVPuvCOTgvnRD-89" value="}" style="text;html=1;align=center;verticalAlign=middle;whiteSpace=wrap;rounded=0;fontSize=17;" vertex="1" parent="1">
          <mxGeometry x="2040" y="2070" width="60" height="30" as="geometry" />
        </mxCell>
        <mxCell id="bvT4swcXVPuvCOTgvnRD-90" value="{" style="text;html=1;align=center;verticalAlign=middle;whiteSpace=wrap;rounded=0;fontSize=17;" vertex="1" parent="1">
          <mxGeometry x="1545" y="1050" width="60" height="30" as="geometry" />
        </mxCell>
      </root>
    </mxGraphModel>
  </diagram>
</mxfile>
